<svg id="Layer_1" data-name="Layer 1" xmlns="http://www.w3.org/2000/svg" viewBox="0 0 1080 1080"><defs><style>.cls-1{fill:#363636;}</style></defs><title>bag</title><path class="cls-1" d="M930.9,303.2a8.15,8.15,0,0,0-8.12-7.53H776.18V255C776.18,124.72,670.23,18.77,540,18.77S303.82,124.72,303.82,255v40.72H157.22a8.15,8.15,0,0,0-8.12,7.53l-57,749.26a8.17,8.17,0,0,0,8.11,8.77H979.79a8.15,8.15,0,0,0,8.11-8.76ZM369,255c0-94.3,76.72-171,171-171s171,76.72,171,171v40.72H369ZM336.4,523.71A81.53,81.53,0,0,1,255,442.27c0-32.5,16.29-61.79,48.87-74.64v74.64a32.58,32.58,0,1,0,65.15,0V367.68c32.58,12.85,48.87,42.36,48.87,74.59A81.53,81.53,0,0,1,336.4,523.71Zm407.2,0a81.53,81.53,0,0,1-81.44-81.44c0-32.5,16.29-61.79,48.87-74.64v74.64a32.58,32.58,0,1,0,65.15,0V367.68c32.58,12.85,48.87,42.36,48.87,74.59A81.53,81.53,0,0,1,743.6,523.71Z"/></svg>