<svg id="Layer_1" data-name="Layer 1" xmlns="http://www.w3.org/2000/svg" viewBox="0 0 1080 1080"><defs><style>.cls-1{fill:#363636;}</style></defs><title>heart</title><path class="cls-1" d="M781.22,51c-55.85,0-107.05,19-152.18,56.62-43.27,36-72.08,81.9-89,115.26-17-33.37-45.77-79.24-89-115.26C405.83,70.05,354.63,51,298.78,51,142.93,51,25.4,188.22,25.4,370.18,25.4,566.76,172,701.26,394,904.87c37.7,34.58,80.42,73.77,124.83,115.57a30.47,30.47,0,0,0,42.34,0c44.41-41.81,87.14-81,124.85-115.6C908,701.26,1054.6,566.76,1054.6,370.18,1054.6,188.22,937.07,51,781.22,51Z"/></svg>