<svg id="Layer_1" data-name="Layer 1" xmlns="http://www.w3.org/2000/svg" viewBox="0 0 1080 1080"><defs><style>.cls-1{fill:#363636;}</style></defs><title>home</title><path class="cls-1" d="M1018.77,474.17l-.07-.07L605.88,61.3a93.15,93.15,0,0,0-131.76,0L61.52,473.89c-.14.13-.27.28-.41.42a93.12,93.12,0,0,0,62,158.73c1,.09,1.9.14,2.87.14h16.45V937a109.15,109.15,0,0,0,109,109H413a29.65,29.65,0,0,0,29.65-29.65V778.18a49.8,49.8,0,0,1,49.75-49.75h95.26a49.79,49.79,0,0,1,49.74,49.75v238.17A29.65,29.65,0,0,0,667,1046H828.54a109.15,109.15,0,0,0,109-109V633.18h15.26a93.18,93.18,0,0,0,65.93-159Z"/></svg>