<svg id="Layer_1" data-name="Layer 1" xmlns="http://www.w3.org/2000/svg" viewBox="0 0 1080 1080"><defs><style>.cls-1{fill:#c2c2c2;}</style></defs><title>search</title><g id="surface1"><path class="cls-1" d="M738.05,635.93c123.29-174.1,82.06-415.19-92-538.45S230.82,15.42,107.55,189.55,25.49,604.71,199.62,728a386.28,386.28,0,0,0,419.64,17.35l284.79,283.08a80.84,80.84,0,0,0,117.23-111.34c-1-1-1.91-2-2.94-2.94ZM422.56,662.32c-137.58,0-249.12-111.42-249.21-249s111.43-249.13,249-249.19c137.4-.06,248.89,111.22,249.15,248.63.24,137.61-111.16,249.33-248.8,249.56Z"/></g></svg>